# xmcd CD database file
#
# Track frame offsets:
#	150
#	14620
#	27435
#	36950
#	49400
#	59282
#	70370
#	83195
#	95985
#	109970
#	120010
#	131322
#
# Disc length: 1898 seconds
#
# Revision: 0
# Processed by: cddbd v1.5.1PL0 Copyright (c) Steve Scherf et al.
# Submitted via: CDex 1.51
#
DISCID=a707680c
DTITLE=El Gran Combo - Menemame Los Mangos
DYEAR=1962
DGENRE=Salsa
TTITLE0=Meneame Los Mangos
TTITLE1=La Calle Donde Tu Vives
TTITLE2=Te Van A Llorar
TTITLE3=Con La Mesa Al Caco
TTITLE4=Dejamela Ver
TTITLE5=Sala Mala
TTITLE6=Con Un Marinero
TTITLE7=No Sufras Mas Corazón
TTITLE8=La Enorme Distancia
TTITLE9=Mira A Ver Si Puedes
TTITLE10=Usted Se Daño
TTITLE11=A La Verdeque
EXTD=YEAR: 1962
EXTT0=
EXTT1=
EXTT2=
EXTT3=
EXTT4=
EXTT5=
EXTT6=
EXTT7=
EXTT8=
EXTT9=
EXTT10=
EXTT11=
PLAYORDER=
